<svg width="103" height="40" viewBox="0 0 103 40" fill="none" xmlns="http://www.w3.org/2000/svg">
<g clip-path="url(#clip0_15_304)">
<path d="M46.7375 4.53971C46.4645 4.53811 46.1938 4.5905 45.941 4.69388C45.6882 4.79727 45.4583 4.9496 45.2645 5.14215C45.0706 5.3347 44.9167 5.56367 44.8115 5.81591C44.7063 6.06815 44.6519 6.3387 44.6515 6.61204V10.6766C44.6515 11.2262 44.8696 11.7533 45.2579 12.142C45.6462 12.5306 46.1728 12.7489 46.7219 12.7489C47.2711 12.7489 47.7977 12.5306 48.1859 12.142C48.5742 11.7533 48.7924 11.2262 48.7924 10.6766V6.61204C48.7919 6.06526 48.5758 5.54078 48.191 5.15269C47.8062 4.7646 47.2838 4.5443 46.7375 4.53971Z" fill="#F26938"/>
<path d="M57.7642 0C57.2152 0.000460774 56.6888 0.218943 56.3006 0.607479C55.9125 0.996016 55.6942 1.52285 55.6937 2.07233V7.98828C55.6937 8.53792 55.9118 9.06496 56.3001 9.4536C56.6884 9.84224 57.2151 10.0606 57.7642 10.0606C58.3133 10.0606 58.8399 9.84224 59.2282 9.4536C59.6165 9.06496 59.8346 8.53792 59.8346 7.98828V2.07233C59.8342 1.52285 59.6159 0.996016 59.2278 0.607479C58.8395 0.218943 58.3131 0.000460774 57.7642 0Z" fill="#F26938"/>
<path d="M54.0388 13.283C53.7493 12.9932 53.3805 12.7959 52.9789 12.716C52.5773 12.6362 52.1611 12.6772 51.7829 12.834C51.4046 12.9908 51.0812 13.2563 50.8538 13.597C50.6262 13.9377 50.5047 14.3382 50.5046 14.748V17.0257C50.5046 17.458 50.6409 17.8794 50.894 18.2297C51.0681 18.4748 51.2936 18.679 51.5547 18.8279C51.8157 18.9768 52.1061 19.067 52.4055 19.0919C52.7049 19.117 53.0062 19.0763 53.2883 18.9727C53.5704 18.8692 53.8265 18.7053 54.0388 18.4925C54.1362 18.394 54.2235 18.2862 54.2996 18.1706C54.5259 17.8317 54.6469 17.4333 54.6473 17.0257V14.748C54.6478 14.4757 54.5942 14.2059 54.4898 13.9544C54.3853 13.703 54.2321 13.4747 54.0388 13.283Z" fill="#F26938"/>
<path d="M14.1929 17.0999C14.2911 17.0999 14.3707 17.1795 14.3707 17.2777V33.5294C14.3707 33.6276 14.2911 33.7072 14.1929 33.7072H10.5066C10.4085 33.7072 10.3289 33.6276 10.3289 33.5294V26.8703H4.04175V33.5294C4.04175 33.6276 3.96219 33.7072 3.86403 33.7072H0.177714C0.0795651 33.7072 0 33.6276 0 33.5294V17.2777C0 17.1795 0.0795653 17.0999 0.177714 17.0999H3.86404C3.96219 17.0999 4.04175 17.1795 4.04175 17.2777V23.6056H10.3289V17.2777C10.3289 17.1795 10.4085 17.0999 10.5066 17.0999H14.1929Z" fill="#F26938"/>
<path d="M23.5046 17.0999C25.2537 17.0999 26.7822 17.4468 28.0901 18.1407C29.3979 18.8347 30.4064 19.8126 31.1155 21.0743C31.8403 22.3202 32.2028 23.7633 32.2028 25.4035C32.2028 27.028 31.8403 28.4711 31.1155 29.7328C30.4064 30.9945 29.39 31.9723 28.0664 32.6663C26.7585 33.3603 25.238 33.7072 23.5046 33.7072H17.4662C17.368 33.7072 17.2884 33.6276 17.2884 33.5294V17.2777C17.2884 17.1795 17.368 17.0999 17.4662 17.0999H23.5046ZM23.2447 30.2059C24.7731 30.2059 25.9628 29.788 26.8137 28.9521C27.6646 28.1163 28.0901 26.9334 28.0901 25.4035C28.0901 23.8737 27.6646 22.683 26.8137 21.8313C25.9628 20.9796 24.7731 20.5538 23.2447 20.5538H21.5079C21.4097 20.5538 21.3302 20.6335 21.3302 20.7317V30.0281C21.3302 30.1263 21.4097 30.2059 21.5079 30.2059H23.2447Z" fill="#F26938"/>
<path d="M38.5032 22.2236C38.5032 22.2681 38.562 22.2856 38.5873 22.2491C38.9732 21.692 39.4888 21.2373 40.134 20.885C40.8274 20.5065 41.6389 20.3172 42.5685 20.3172C43.6558 20.3172 44.6406 20.5932 45.523 21.1452C46.4054 21.6972 47.0988 22.4858 47.603 23.511C48.123 24.5361 48.383 25.7268 48.383 27.0832C48.383 28.4395 48.123 29.6382 47.603 30.679C47.0988 31.7042 46.4054 32.5007 45.523 33.0685C44.6406 33.6205 43.6558 33.8965 42.5685 33.8965C41.6546 33.8965 40.8431 33.7072 40.134 33.3287C39.4886 32.9763 38.9729 32.5282 38.5869 31.9845C38.5613 31.9486 38.5032 31.9663 38.5032 32.0104V39.8222C38.5032 39.9204 38.4236 40 38.3255 40H34.6391C34.541 40 34.4614 39.9204 34.4614 39.8222V20.5065H38.5032V22.2236ZM44.2703 27.0832C44.2703 26.0738 43.9867 25.2852 43.4195 24.7174C42.868 24.1339 42.1825 23.8422 41.3632 23.8422C40.5595 23.8422 39.8741 24.1339 39.3068 24.7174C38.7552 25.301 38.4795 26.0974 38.4795 27.1069C38.4795 28.1162 38.7552 28.9126 39.3068 29.4962C39.8741 30.0798 40.5595 30.3715 41.3632 30.3715C42.1667 30.3715 42.8522 30.0798 43.4195 29.4962C43.9867 28.8969 44.2703 28.0926 44.2703 27.0832Z" fill="white"/>
<path d="M54.3245 20.5577C54.4372 20.5326 54.5451 20.6182 54.5451 20.7337V33.5294C54.5451 33.6276 54.4656 33.7072 54.3675 33.7072H50.6811C50.5829 33.7072 50.5034 33.6276 50.5034 33.5294V20.7337C50.5034 20.6182 50.6114 20.5326 50.724 20.5577C51.1144 20.6445 51.9404 20.8114 52.5242 20.8114C53.1081 20.8114 53.9342 20.6445 54.3245 20.5577Z" fill="white"/>
<path d="M56.6705 27.0832C56.6705 25.7268 56.9227 24.5361 57.4269 23.511C57.9469 22.4858 58.6481 21.6972 59.5305 21.1452C60.4129 20.5932 61.3977 20.3172 62.485 20.3172C63.4147 20.3172 64.2261 20.5065 64.9195 20.885C65.5771 21.236 66.0924 21.6888 66.4654 22.2433C66.4904 22.2805 66.5504 22.2631 66.5504 22.2183V20.6843C66.5504 20.5861 66.63 20.5065 66.7281 20.5065H70.4144C70.5126 20.5065 70.5921 20.5861 70.5921 20.6843V33.5294C70.5921 33.6276 70.5126 33.7072 70.4144 33.7072H66.7281C66.63 33.7072 66.5504 33.6276 66.5504 33.5294V31.9901C66.5504 31.9456 66.4916 31.928 66.4662 31.9645C66.0792 32.5217 65.5558 32.9764 64.8959 33.3287C64.2026 33.7072 63.3911 33.8965 62.4613 33.8965C61.3899 33.8965 60.4129 33.6205 59.5305 33.0685C58.6481 32.5007 57.9469 31.7042 57.4269 30.679C56.9227 29.6382 56.6705 28.4395 56.6705 27.0832ZM66.5504 27.1069C66.5504 26.0974 66.2668 25.301 65.6995 24.7174C65.148 24.1339 64.4704 23.8422 63.6668 23.8422C62.8632 23.8422 62.1777 24.1339 61.6105 24.7174C61.059 25.2852 60.7832 26.0738 60.7832 27.0832C60.7832 28.0926 61.059 28.8969 61.6105 29.4962C62.1777 30.0798 62.8632 30.3715 63.6668 30.3715C64.4704 30.3715 65.148 30.0798 65.6995 29.4962C66.2668 28.9126 66.5504 28.1162 66.5504 27.1069Z" fill="white"/>
<path d="M81.5524 20.3646C83.0966 20.3646 84.3259 20.8692 85.2395 21.8786C86.169 22.8722 86.6342 24.2443 86.6342 25.995V33.5294C86.6342 33.6276 86.5543 33.7072 86.4568 33.7072H82.7937C82.6953 33.7072 82.6162 33.6276 82.6162 33.5294V26.539C82.6162 25.6558 82.3876 24.9698 81.9304 24.4809C81.4733 23.992 80.8594 23.7475 80.0873 23.7475C79.3149 23.7475 78.7004 23.992 78.2434 24.4809C77.7864 24.9698 77.558 25.6558 77.558 26.539V33.5294C77.558 33.6276 77.4784 33.7072 77.3802 33.7072H73.6939C73.5958 33.7072 73.5162 33.6276 73.5162 33.5294V20.6843C73.5162 20.5861 73.5958 20.5065 73.6939 20.5065H77.3802C77.4784 20.5065 77.558 20.5861 77.558 20.6843V22.1165C77.558 22.1599 77.6146 22.1782 77.6407 22.1435C78.0409 21.6139 78.5648 21.1944 79.2125 20.885C79.9058 20.538 80.686 20.3646 81.5524 20.3646Z" fill="white"/>
<path d="M95.4463 33.8965C94.1538 33.8965 92.9885 33.6205 91.9478 33.0685C90.9239 32.5165 90.1127 31.7278 89.514 30.7027C88.9305 29.6776 88.6388 28.479 88.6388 27.1069C88.6388 25.7505 88.9385 24.5598 89.5372 23.5346C90.1358 22.4937 90.9551 21.6972 91.9958 21.1452C93.0356 20.5932 94.2018 20.3172 95.4934 20.3172C96.7859 20.3172 97.952 20.5932 98.9919 21.1452C100.032 21.6972 100.851 22.4937 101.45 23.5346C102.048 24.5598 102.348 25.7505 102.348 27.1069C102.348 28.4632 102.04 29.6618 101.427 30.7027C100.827 31.7278 99.9998 32.5165 98.9447 33.0685C97.9041 33.6205 96.7387 33.8965 95.4463 33.8965ZM95.4463 30.3952C96.2184 30.3952 96.8722 30.1113 97.4077 29.5435C97.9592 28.9758 98.235 28.1635 98.235 27.1069C98.235 26.0502 97.9672 25.2379 97.4317 24.6702C96.9114 24.1024 96.2655 23.8185 95.4934 23.8185C94.7053 23.8185 94.0515 24.1024 93.532 24.6702C93.0117 25.2222 92.7519 26.0344 92.7519 27.1069C92.7519 28.1635 93.0037 28.9758 93.508 29.5435C94.0284 30.1113 94.6742 30.3952 95.4463 30.3952Z" fill="white"/>
</g>
<defs>
<clipPath id="clip0_15_304">
<rect width="102.388" height="40" fill="white"/>
</clipPath>
</defs>
</svg>
